<svg width="128" height="128" viewBox="0 0 128 128" fill="none" xmlns="http://www.w3.org/2000/svg">
<path d="M55 11C48.5702 11 43.1541 15.3348 41.5117 21.2412C33.5491 22.5344 27.2933 28.9096 26.1787 36.9307C22.5358 38.5783 20 42.2419 20 46.5C20 52.299 24.701 57 30.5 57C32.3356 57 34.0602 56.527 35.5615 55.6992C38.2113 57.1644 41.2578 58 44.5 58C50.6696 58 56.133 54.9793 59.4941 50.3369C62.9227 52.6492 67.0534 54 71.5 54C73.874 54 76.1577 53.6139 78.293 52.9033C81.2139 56.0382 85.3773 58 90 58C98.8366 58 106 50.8366 106 42C106 33.8546 99.9133 27.1308 92.04 26.1289C89.3248 17.3654 81.1559 11 71.5 11C68.2125 11 65.0978 11.7385 62.3115 13.0576C60.1836 11.752 57.6795 11 55 11Z" fill="url(#paint0_radial_14_61)"/>
<path d="M94.5 46.2886L31.5 46.4019C27.0817 46.4019 23.5 49.9836 23.5 54.4019L28.5 108.402C28.5 112.82 32.0817 116.402 36.5 116.402H90.6962C95.1145 116.402 98.6962 112.82 98.6962 108.402L102.5 54.2886C102.5 49.8703 98.9183 46.2886 94.5 46.2886Z" fill="url(#paint1_linear_14_61)"/>
<path d="M93.0371 101.125C94.701 98.945 97.6781 99.1686 99.2236 100.895L98.6963 108.401C98.6963 112.82 95.1145 116.401 90.6963 116.401H85.8994L85.5 111L93.0371 101.125Z" fill="url(#paint2_radial_14_61)"/>
<path d="M93.0371 101.125C94.701 98.945 97.6781 99.1686 99.2236 100.895L98.6963 108.401C98.6963 112.82 95.1145 116.401 90.6963 116.401H85.8994L85.5 111L93.0371 101.125Z" fill="black" fill-opacity="0.2"/>
<path d="M73.5 116.401H53.9141V111H73.5V116.401Z" fill="url(#paint3_radial_14_61)"/>
<path d="M73.5 116.401H53.9141V111H73.5V116.401Z" fill="black" fill-opacity="0.2"/>
<path d="M40.5 111L40.0596 116.401H36.5C32.0817 116.401 28.5 112.82 28.5 108.401L27.3486 95.9697L40.5 111Z" fill="url(#paint4_radial_14_61)"/>
<path d="M40.5 111L40.0596 116.401H36.5C32.0817 116.401 28.5 112.82 28.5 108.401L27.3486 95.9697L40.5 111Z" fill="black" fill-opacity="0.2"/>
<path d="M95 44H31C26.5817 44 23 47.5817 23 52L29 103C29 107.418 32.5817 111 37 111H89C93.4183 111 97 107.418 97 103L103 52C103 47.5817 99.4183 44 95 44Z" fill="#FFF8F7"/>
<path d="M40.4891 111H32.5017C30.4512 111 28.7331 109.449 28.5232 107.409L22.4539 48.4092C22.2113 46.0507 24.0615 44 26.4324 44H35.3348L40.4891 111Z" fill="url(#paint5_radial_14_61)"/>
<path d="M73.448 111H53.9139L52.0848 44H75.2771L73.448 111Z" fill="url(#paint6_radial_14_61)"/>
<path d="M99.3035 44C101.633 44 103.47 45.9835 103.292 48.3066L98.7537 107.307C98.5934 109.391 96.8555 111 94.7654 111H85.5848L90.7391 44H99.3035Z" fill="url(#paint7_radial_14_61)"/>
<path d="M18 50H109V52C109 55.866 105.866 59 102 59H25C21.134 59 18 55.866 18 52V50Z" fill="#D9D9D9"/>
<path d="M18 50.5C18 46.9101 20.9101 44 24.5 44H102.5C106.09 44 109 46.9101 109 50.5C109 54.0899 106.09 57 102.5 57H24.5C20.9102 57 18 54.0899 18 50.5Z" fill="white"/>
<defs>
<radialGradient id="paint0_radial_14_61" cx="0" cy="0" r="1" gradientUnits="userSpaceOnUse" gradientTransform="translate(63.0422 24.709) rotate(180) scale(42.8135 23.1469)">
<stop stop-color="#FFC96B"/>
<stop offset="0.833" stop-color="#F3B602" stop-opacity="0.980392"/>
<stop offset="1" stop-color="#FFA100"/>
</radialGradient>
<linearGradient id="paint1_linear_14_61" x1="22.9818" y1="118" x2="103" y2="118" gradientUnits="userSpaceOnUse">
<stop stop-color="#9A9996"/>
<stop offset="0.0502156" stop-color="#C0BFBC"/>
<stop offset="0.100204" stop-color="#9A9996"/>
<stop offset="0.900023" stop-color="#9A9996"/>
<stop offset="0.950011" stop-color="#C0BFBC"/>
<stop offset="1" stop-color="#9A9996"/>
</linearGradient>
<radialGradient id="paint2_radial_14_61" cx="0" cy="0" r="1" gradientUnits="userSpaceOnUse" gradientTransform="translate(63.2509 101.929) scale(35.7816 10.0623)">
<stop stop-color="#ED686F"/>
<stop offset="0.833" stop-color="#A51D2D"/>
<stop offset="1" stop-color="#8A1F24"/>
</radialGradient>
<radialGradient id="paint3_radial_14_61" cx="0" cy="0" r="1" gradientUnits="userSpaceOnUse" gradientTransform="translate(63.2509 101.929) scale(35.7816 10.0623)">
<stop stop-color="#ED686F"/>
<stop offset="0.833" stop-color="#A51D2D"/>
<stop offset="1" stop-color="#8A1F24"/>
</radialGradient>
<radialGradient id="paint4_radial_14_61" cx="0" cy="0" r="1" gradientUnits="userSpaceOnUse" gradientTransform="translate(63.2509 101.929) scale(35.7816 10.0623)">
<stop stop-color="#ED686F"/>
<stop offset="0.833" stop-color="#A51D2D"/>
<stop offset="1" stop-color="#8A1F24"/>
</radialGradient>
<radialGradient id="paint5_radial_14_61" cx="0" cy="0" r="1" gradientUnits="userSpaceOnUse" gradientTransform="translate(62.8285 63.5427) scale(40.2602 32.9966)">
<stop stop-color="#ED686F"/>
<stop offset="0.833" stop-color="#A51D2D"/>
<stop offset="1" stop-color="#8A1F24"/>
</radialGradient>
<radialGradient id="paint6_radial_14_61" cx="0" cy="0" r="1" gradientUnits="userSpaceOnUse" gradientTransform="translate(62.8285 63.5427) scale(40.2602 32.9966)">
<stop stop-color="#ED686F"/>
<stop offset="0.833" stop-color="#A51D2D"/>
<stop offset="1" stop-color="#8A1F24"/>
</radialGradient>
<radialGradient id="paint7_radial_14_61" cx="0" cy="0" r="1" gradientUnits="userSpaceOnUse" gradientTransform="translate(62.8285 63.5427) scale(40.2602 32.9966)">
<stop stop-color="#ED686F"/>
<stop offset="0.833" stop-color="#A51D2D"/>
<stop offset="1" stop-color="#8A1F24"/>
</radialGradient>
</defs>
</svg>
