<svg width="16" height="16" viewBox="0 0 16 16" fill="none" xmlns="http://www.w3.org/2000/svg">
<path d="M13.0704 5.3208C13.5368 5.32099 13.9149 5.69909 13.9151 6.16553C13.9151 6.62029 13.5557 6.98965 13.1055 7.0083L12.5831 13.811C12.5622 14.0819 12.3362 14.2915 12.0645 14.2915H10.8711L11.4307 7.01123H9.49223L9.29301 14.2915H6.75395L6.55473 7.01123H4.44926L5.00883 14.2915H3.96977C3.7035 14.2913 3.48056 14.0896 3.45317 13.8247L2.75005 6.99072C2.36991 6.90818 2.08501 6.57039 2.08501 6.16553C2.08515 5.69906 2.46327 5.32095 2.92973 5.3208H13.0704Z" fill="#2E3436"/>
<path d="M9.03993 1.29102C10.2951 1.29102 11.3568 2.11869 11.7099 3.25781C12.3669 3.34143 12.9273 3.73247 13.245 4.28125H3.23329C3.50038 3.4222 4.23609 2.77014 5.14149 2.62305C5.35501 1.85522 6.05953 1.29102 6.8954 1.29102C7.24359 1.29109 7.56907 1.38893 7.8456 1.55859C8.20776 1.38716 8.61264 1.29103 9.03993 1.29102Z" fill="#2E3436"/>
</svg>
