<svg xmlns="http://www.w3.org/2000/svg" viewBox="0 0 33.75 33.75"><defs><clipPath id="a"><rect width="362.94" height="362.94" x="486.04" y="124" fill="#4a86cf" rx="32" ry="32" transform="rotate(45)"/></clipPath></defs><g stroke-width=".25"><g stroke-width=".27" clip-path="url(#a)" transform="translate(1.248 -24.864) scale(.06104)"><rect width="424" height="424" x="458.34" y="90.642" fill="#3584e4" clip-path="none" rx="10.092" ry="10.092" transform="rotate(45 -102.873 89.904) scale(.856)"/><path fill="#98c1f1" d="m408.92 561.92-9.886 29.829a172.97 172.97 0 0 0-1.427-.071 172.97 172.97 0 0 0-23.929 1.852l-13.801-28.501A203.29 203.29 0 0 0 330.476 573l2.286 31.405a172.97 172.97 0 0 0-22.732 11.319l-23.718-21.103a203.29 203.29 0 0 0-24.059 18.674l14.1 28.073a172.97 172.97 0 0 0-16.637 19.21l-30.058-10.447a203.29 203.29 0 0 0-15.017 26.488l23.73 20.507a172.97 172.97 0 0 0-7.984 24.143l-31.73 1.849a203.29 203.29 0 0 0-3.779 30.217l29.83 9.886a172.97 172.97 0 0 0-.072 1.427 172.97 172.97 0 0 0 1.852 23.929l-28.501 13.8a203.29 203.29 0 0 0 7.972 29.402l31.405-2.287a172.97 172.97 0 0 0 11.32 22.732l-21.104 23.718a203.29 203.29 0 0 0 18.674 24.06l28.073-14.1a172.97 172.97 0 0 0 19.211 16.636l-10.448 30.058a203.29 203.29 0 0 0 26.488 15.017l20.507-23.73a172.97 172.97 0 0 0 24.143 7.985l1.849 31.73a203.29 203.29 0 0 0 30.217 3.778l9.886-29.829a172.97 172.97 0 0 0 1.427.072 172.97 172.97 0 0 0 23.929-1.852l13.801 28.5a203.29 203.29 0 0 0 29.401-7.972l-2.286-31.405a172.97 172.97 0 0 0 22.732-11.319l23.718 21.103A203.29 203.29 0 0 0 532.961 916l-14.1-28.073a172.97 172.97 0 0 0 16.637-19.21l30.058 10.447a203.29 203.29 0 0 0 15.017-26.488l-23.73-20.507a172.97 172.97 0 0 0 7.984-24.143l31.73-1.848a203.29 203.29 0 0 0 3.779-30.217l-29.83-9.886a172.97 172.97 0 0 0 .072-1.427 172.97 172.97 0 0 0-1.852-23.93l28.501-13.8a203.29 203.29 0 0 0-7.972-29.401l-31.405 2.286a172.97 172.97 0 0 0-11.32-22.732l21.104-23.718a203.29 203.29 0 0 0-18.674-24.06l-28.073 14.1a172.97 172.97 0 0 0-19.211-16.636l10.448-30.058a203.29 203.29 0 0 0-26.488-15.017l-20.507 23.73a172.97 172.97 0 0 0-24.143-7.985l-1.849-31.73a203.29 203.29 0 0 0-30.217-3.778zm-11.313 75.804a126.93 126.93 0 0 1 126.92 126.92 126.93 126.93 0 0 1-126.92 126.92 126.93 126.93 0 0 1-126.92-126.92 126.93 126.93 0 0 1 126.92-126.92z"/><path fill="#1a5fb4" d="m51.748 401.28-9.886 29.829c-.476-.026-.951-.05-1.427-.071-8.01.062-16.005.681-23.929 1.852L2.705 404.389a203.29 203.29 0 0 0-29.401 7.972l2.286 31.405a173.024 173.024 0 0 0-22.732 11.319l-23.718-21.103a203.304 203.304 0 0 0-24.059 18.674l14.1 28.073a172.976 172.976 0 0 0-16.637 19.21l-30.058-10.447a203.388 203.388 0 0 0-15.017 26.488l23.73 20.507a172.957 172.957 0 0 0-7.984 24.143l-31.73 1.849a203.286 203.286 0 0 0-3.779 30.217l29.83 9.886c-.026.475-.05.95-.072 1.427a172.97 172.97 0 0 0 1.852 23.929l-28.501 13.8a203.29 203.29 0 0 0 7.972 29.402l31.405-2.287a173.024 173.024 0 0 0 11.32 22.732l-21.104 23.718a203.304 203.304 0 0 0 18.674 24.06l28.073-14.1A172.976 172.976 0 0 0-63.634 741.9l-10.448 30.058a203.381 203.381 0 0 0 26.488 15.017l20.507-23.73c7.841 3.25 15.91 5.92 24.143 7.985l1.849 31.73a203.3 203.3 0 0 0 30.217 3.778l9.886-29.829c.476.026.951.05 1.427.072a172.97 172.97 0 0 0 23.929-1.852l13.801 28.5a203.29 203.29 0 0 0 29.401-7.972l-2.286-31.405a173.024 173.024 0 0 0 22.732-11.319l23.718 21.103a203.304 203.304 0 0 0 24.059-18.674l-14.1-28.073a172.976 172.976 0 0 0 16.637-19.21l30.058 10.447a203.388 203.388 0 0 0 15.017-26.488l-23.73-20.507a172.88 172.88 0 0 0 7.984-24.143l31.73-1.848a203.286 203.286 0 0 0 3.779-30.217l-29.83-9.886c.026-.476.05-.952.072-1.427a172.971 172.971 0 0 0-1.852-23.93l28.501-13.8a203.29 203.29 0 0 0-7.972-29.401l-31.405 2.286a173.024 173.024 0 0 0-11.32-22.732l21.104-23.718a203.304 203.304 0 0 0-18.674-24.06l-28.073 14.1a172.976 172.976 0 0 0-19.211-16.636l10.448-30.058a203.388 203.388 0 0 0-26.488-15.017l-20.507 23.73a172.957 172.957 0 0 0-24.143-7.985l-1.849-31.73a203.3 203.3 0 0 0-30.217-3.778z"/></g><path fill="#1a5fb4" d="M2.235 16.343a2.104 2.104 0 0 0 .466 2.282l12.683 12.683a2.104 2.104 0 0 0 2.982 0L31.05 18.625a2.104 2.104 0 0 0 .466-2.282 2.111 2.111 0 0 1-.466.7L18.366 29.726a2.104 2.104 0 0 1-2.982 0L2.7 17.043a2.111 2.111 0 0 1-.466-.7z" opacity=".534"/><path fill="none" d="M0-.005h33.75v33.75H0z"/></g></svg>